<?xml version="1.0" encoding="UTF-8" standalone="no"?>
<!-- Created with Inkscape (http://www.inkscape.org/) -->

<svg
   width="32.196625mm"
   height="31.637798mm"
   viewBox="0 0 32.196625 31.637798"
   version="1.1"
   id="svg1"
   sodipodi:docname="opencologne.logo.svg"
   inkscape:version="1.3.2 (091e20ef0f, 2023-11-25)"
   inkscape:export-filename="openCologneFinalHexPlain.svg"
   inkscape:export-xdpi="96"
   inkscape:export-ydpi="96"
   xmlns:inkscape="http://www.inkscape.org/namespaces/inkscape"
   xmlns:sodipodi="http://sodipodi.sourceforge.net/DTD/sodipodi-0.dtd"
   xmlns:xlink="http://www.w3.org/1999/xlink"
   xmlns="http://www.w3.org/2000/svg"
   xmlns:svg="http://www.w3.org/2000/svg">
  <sodipodi:namedview
     id="namedview1"
     pagecolor="#ffffff"
     bordercolor="#000000"
     borderopacity="0.25"
     inkscape:showpageshadow="2"
     inkscape:pageopacity="0.0"
     inkscape:pagecheckerboard="0"
     inkscape:deskcolor="#d1d1d1"
     inkscape:document-units="mm"
     inkscape:zoom="2"
     inkscape:cx="73.75"
     inkscape:cy="99.5"
     inkscape:window-width="1920"
     inkscape:window-height="1008"
     inkscape:window-x="0"
     inkscape:window-y="0"
     inkscape:window-maximized="1"
     inkscape:current-layer="layer1" />
  <defs
     id="defs1">
    <linearGradient
       id="linearGradient24"
       inkscape:collect="always">
      <stop
         style="stop-color:#c6c6c6;stop-opacity:1;"
         offset="0"
         id="stop24" />
      <stop
         style="stop-color:#4d4d4f;stop-opacity:1;"
         offset="1"
         id="stop25" />
    </linearGradient>
    <linearGradient
       id="linearGradient22"
       inkscape:collect="always">
      <stop
         style="stop-color:#c6c6c6;stop-opacity:1;"
         offset="0"
         id="stop22" />
      <stop
         style="stop-color:#4d4d4f;stop-opacity:1;"
         offset="1"
         id="stop23" />
    </linearGradient>
    <linearGradient
       id="linearGradient20"
       inkscape:collect="always">
      <stop
         style="stop-color:#c6c6c6;stop-opacity:1;"
         offset="0"
         id="stop20" />
      <stop
         style="stop-color:#4d4d4f;stop-opacity:1;"
         offset="1"
         id="stop21" />
    </linearGradient>
    <linearGradient
       id="linearGradient16"
       inkscape:collect="always">
      <stop
         style="stop-color:#c6c6c6;stop-opacity:1;"
         offset="0"
         id="stop16" />
      <stop
         style="stop-color:#4d4d4f;stop-opacity:1;"
         offset="0.99999982"
         id="stop18" />
    </linearGradient>
    <linearGradient
       inkscape:collect="always"
       xlink:href="#linearGradient28"
       id="linearGradient60"
       gradientUnits="userSpaceOnUse"
       x1="22.864908"
       y1="31.110918"
       x2="24.989285"
       y2="33.566498"
       gradientTransform="translate(58.849742,4.816684)" />
    <linearGradient
       id="linearGradient28"
       inkscape:collect="always">
      <stop
         style="stop-color:#db0404;stop-opacity:1;"
         offset="0"
         id="stop28" />
      <stop
         style="stop-color:#e43030;stop-opacity:1;"
         offset="1"
         id="stop29" />
    </linearGradient>
    <linearGradient
       inkscape:collect="always"
       xlink:href="#linearGradient61"
       id="linearGradient62"
       x1="60.319538"
       y1="44.855865"
       x2="61.654213"
       y2="44.448051"
       gradientUnits="userSpaceOnUse"
       gradientTransform="translate(23.569347,-9.648649)" />
    <linearGradient
       id="linearGradient61"
       inkscape:collect="always">
      <stop
         style="stop-color:#e50707;stop-opacity:1;"
         offset="0"
         id="stop61" />
      <stop
         style="stop-color:#e92b2b;stop-opacity:1;"
         offset="1"
         id="stop62" />
    </linearGradient>
    <linearGradient
       inkscape:collect="always"
       xlink:href="#linearGradient16"
       id="linearGradient17"
       x1="55.714615"
       y1="22.822468"
       x2="58.753536"
       y2="26.378649"
       gradientUnits="userSpaceOnUse"
       gradientTransform="translate(-36.735742,0.428914)" />
    <linearGradient
       inkscape:collect="always"
       xlink:href="#linearGradient20"
       id="linearGradient21"
       x1="75.057167"
       y1="22.120707"
       x2="72.356377"
       y2="25.744625"
       gradientUnits="userSpaceOnUse"
       gradientTransform="translate(-36.735742,0.428914)" />
    <linearGradient
       inkscape:collect="always"
       xlink:href="#linearGradient22"
       id="linearGradient23"
       x1="75.420807"
       y1="36.830994"
       x2="72.72818"
       y2="34.04805"
       gradientUnits="userSpaceOnUse"
       gradientTransform="translate(-36.735742,0.428914)" />
    <linearGradient
       inkscape:collect="always"
       xlink:href="#linearGradient24"
       id="linearGradient25"
       x1="55.976486"
       y1="37.139439"
       x2="57.928013"
       y2="34.075859"
       gradientUnits="userSpaceOnUse"
       gradientTransform="translate(-36.735742,0.428914)" />
  </defs>
  <g
     inkscape:label="Layer 1"
     inkscape:groupmode="layer"
     id="layer1"
     transform="translate(-13.26964,-14.033537)">
    <g
       id="g78">
      <path
         id="path77"
         style="fill:#dadada;fill-opacity:1;stroke:none;stroke-width:0.264583px;stroke-linecap:butt;stroke-linejoin:miter;stroke-opacity:1"
         d="m 43.634929,35.334425 c -0.408405,9.32e-4 -0.812301,0.236656 -1.213879,0.707967 -0.348089,0.408525 -0.543514,0.820573 -0.596346,1.258838 -0.0705,0.584824 -0.105762,0.619009 -0.582394,0.56379 -0.526584,-0.06101 -0.674937,0.0032 -1.205094,0.518832 -0.617734,0.600776 -1.077654,0.897552 -1.298112,0.838191 -0.09726,-0.02619 -0.207171,-0.09004 -0.243913,-0.14211 -0.119332,-0.16912 -0.757822,0.218153 -1.071769,0.65009 -0.148628,0.204487 -0.413901,0.473775 -0.589111,0.598413 -0.460071,0.327271 -0.636083,0.524076 -0.820105,0.915189 -0.08971,0.19067 -0.211283,0.366705 -0.270268,0.391191 -0.05898,0.02449 -0.308231,-0.03099 -0.553455,-0.12299 -0.358335,-0.134423 -0.533528,-0.159326 -0.892452,-0.128158 -0.494696,0.04296 -1.098536,0.316749 -1.296045,0.588078 -0.06518,0.08954 -0.200824,0.221493 -0.30179,0.293006 l -0.183451,0.130224 -0.132292,-0.315743 c -0.07275,-0.173447 -0.133035,-0.359718 -0.133842,-0.413928 -8.07e-4,-0.05421 -0.05894,-0.216689 -0.129191,-0.361218 -0.07025,-0.144529 -0.145079,-0.321779 -0.166398,-0.393775 -0.03459,-0.116825 -0.09129,-0.125151 -0.523999,-0.08061 -0.266669,0.02745 -0.502103,0.06042 -0.523482,0.07338 -0.03725,0.02257 -0.180176,0.987794 -0.212907,1.438671 -0.02161,0.29769 -0.186066,0.311911 -0.568958,0.04909 -0.387128,-0.265724 -0.73703,-0.373104 -1.21698,-0.373104 -0.497812,0 -0.783609,0.09643 -1.173572,0.396358 -0.181009,0.139221 -0.364361,0.253215 -0.407727,0.253215 -0.04337,0 -0.253726,-0.190701 -0.467671,-0.423747 -0.484507,-0.527762 -0.964895,-0.744676 -1.663465,-0.751375 -0.599202,-0.0057 -0.93555,0.181627 -1.259871,0.701249 -0.441877,0.707967 -0.455973,1.572681 -0.03566,2.200383 0.389737,0.582029 1.52218,0.961882 2.174028,0.729154 0.141919,-0.05067 0.412402,-0.250427 0.600997,-0.443384 l 0.342614,-0.350366 0.417546,0.507979 c 0.229523,0.279382 0.503307,0.555964 0.608748,0.61495 0.505693,0.282897 1.227709,0.292768 1.803508,0.02481 0.183152,-0.08524 0.402144,-0.243236 0.486275,-0.3514 0.08413,-0.108164 0.236999,-0.256664 0.340031,-0.329696 l 0.187585,-0.132808 0.29869,0.375171 c 0.281129,0.352999 0.316898,0.375132 0.609782,0.37362 0.372037,-0.0019 0.543036,-0.130901 0.742074,-0.561723 0.17638,-0.381781 0.294137,-0.437784 0.528133,-0.25063 0.610288,0.488117 1.273083,0.58814 1.984375,0.30024 0.403308,-0.163241 0.851632,-0.586205 1.045931,-0.98702 0.226689,-0.467635 0.486957,-0.335905 0.660425,0.334347 0.158085,0.610816 0.602136,0.936766 1.136881,0.834574 0.124387,-0.02377 0.564886,-0.219714 0.979268,-0.435632 1.199465,-0.624992 1.517711,-1.090012 1.344105,-1.965255 -0.117295,-0.591347 -0.153361,-0.641007 -0.560173,-0.768945 -0.438089,-0.137774 -0.603843,-0.352133 -0.534851,-0.691948 0.02508,-0.123544 0.08982,-0.242748 0.14366,-0.2651 0.480578,0.283511 0.761236,1.006822 1.227316,1.060884 0.775286,0.05106 1.046217,-0.648082 1.041279,-1.185457 0.538066,0.06214 0.856189,0.08881 1.168921,-0.244446 0.191296,-0.203853 0.196,-0.282879 0.185518,-0.695048 -0.0064,-0.250997 0.0071,-0.488762 0.02997,-0.52865 0.02279,-0.03989 0.278622,-0.08727 0.568441,-0.10542 0.627857,-0.03932 0.949335,-0.21323 1.436088,-0.77618 0.764981,-0.88473 0.75845,-1.564968 -0.02377,-2.443778 -0.417844,-0.469437 -0.830796,-0.703214 -1.239201,-0.702283 z"
         sodipodi:nodetypes="cssscsssssscsscccsssscsssssscssscccsssccccsssssssssssccsccssscc" />
      <path
         id="path23"
         style="fill:#2d69ff;fill-opacity:1"
         d="m 43.709332,35.424088 c -0.428217,-0.03835 -0.849945,0.190363 -1.270207,0.687814 -0.622624,0.736981 -0.667628,1.487485 -0.129191,2.149222 0.142227,0.174797 0.386511,0.386396 0.543119,0.470256 0.607092,0.325088 1.206127,0.136147 1.811776,-0.571541 0.585588,-0.684249 0.704988,-1.325464 0.342098,-1.838131 l -0.12454,-0.153479 -0.713135,0.810286 0.106454,0.183452 c 0.07336,0.471675 -0.332062,0.876647 -0.718303,0.717785 -0.226559,-0.09318 -0.274293,-0.187385 -0.150895,-0.298173 0.05516,-0.04953 0.375114,-0.412059 0.710551,-0.805635 l 0.609782,-0.715719 -0.15968,-0.187585 c -0.08788,-0.10324 -0.280397,-0.247531 -0.427364,-0.320911 -0.144355,-0.07207 -0.287726,-0.114859 -0.430465,-0.127641 z m -0.376721,0.936377 c 0.06513,0.0049 0.130018,0.03308 0.195337,0.08475 0.10384,0.08214 0.08048,0.127445 -0.241846,0.471805 -0.196028,0.209429 -0.37712,0.35825 -0.40256,0.33073 -0.111043,-0.120128 -0.04128,-0.543598 0.117823,-0.715719 0.113375,-0.122651 0.22269,-0.179723 0.331246,-0.171566 z m -2.336809,1.556494 c -0.07819,-0.0086 -0.153843,0.0042 -0.255798,0.03462 -0.367507,0.109774 -0.765812,0.530051 -0.858862,0.906404 l -0.077,0.312643 -0.141594,-0.143661 -0.141076,-0.14366 -0.02584,-0.0217 -0.666626,0.553971 0.06305,0.111621 0.0021,-0.0021 c 0.07524,0.145834 0.381042,0.629275 0.762227,1.200444 l 0.79375,1.189591 0.395325,-0.30024 c 0.142205,-0.107912 0.252206,-0.19836 0.330729,-0.26665 l 0.001,0.0026 c 0.02074,-0.01786 0.153995,-0.12454 0.153995,-0.12454 l -0.576709,-0.843359 c -0.508889,-0.770639 -0.571854,-1.005684 -0.322977,-1.223698 0.08215,-0.07196 0.185273,-0.130741 0.229443,-0.130741 0.110063,0 0.348041,0.286676 0.839225,1.011824 0.101054,0.149187 0.192172,0.278536 0.271302,0.38809 l -5.17e-4,5.17e-4 0.01964,0.02584 c 0.01485,0.02044 0.02181,0.02903 0.03514,0.04703 l 0.165881,0.222208 0.840259,-0.660425 -0.241329,-0.3545 c -0.111071,-0.177852 -0.264527,-0.412456 -0.433048,-0.661458 -0.495287,-0.731819 -0.66583,-0.930969 -0.889869,-1.03818 -0.112871,-0.05401 -0.193628,-0.08393 -0.271818,-0.0925 z m -2.598807,1.102776 -0.779281,0.370003 0.0124,0.187585 0.0052,-0.0021 c -0.0042,0.01664 -0.01059,0.03288 -0.01085,0.05064 -0.0044,0.298977 -0.167676,0.486021 -0.635103,0.728638 -0.58989,0.306179 -0.965833,0.733997 -0.965833,1.098641 0,0.387872 0.15668,0.648114 0.472839,0.784965 0.254097,0.109989 0.26898,0.130824 0.177251,0.243912 -0.251312,0.309825 -0.190709,0.77608 0.12454,0.958598 0.109379,0.06333 0.15106,0.133386 0.12299,0.208256 -0.130227,0.347443 -0.108604,0.627994 0.06615,0.852661 0.09696,0.124651 0.242591,0.241129 0.324011,0.258899 0.247713,0.05406 0.435855,-0.01339 1.345137,-0.483691 1.050822,-0.543504 1.308448,-0.802478 1.308448,-1.315682 0,-0.595217 -0.345095,-1.041797 -0.805119,-1.041797 -0.156998,0 -0.508172,0.124482 -0.926559,0.329179 -0.370413,0.181226 -0.703246,0.309834 -0.740006,0.285254 -0.151054,-0.100994 -0.04503,-0.237852 0.33848,-0.436149 0.488689,-0.252679 0.824313,-0.589282 0.928626,-0.931209 0.106882,-0.35035 -0.08901,-0.84272 -0.389124,-0.977202 l -0.208772,-0.09353 0.166398,-0.213941 c 0.146605,-0.188486 0.202947,-0.503102 0.144694,-0.661458 l 0.0021,-0.001 z m -6.532418,1.803507 -1.037663,0.133325 0.0078,0.172083 v 5.16e-4 c 10e-4,0.0343 0.0044,0.07451 0.01034,0.12144 0.01878,0.149055 0.110298,1.051616 0.203088,2.005562 0.08425,0.866148 0.157141,1.545024 0.181384,1.707907 h -0.0031 l 0.02481,0.211356 1.014925,-0.131258 -0.0026,-0.102319 h -0.0047 c 0.0095,-0.191821 -0.248959,-2.992874 -0.350883,-3.784782 L 31.870258,40.8651 Z m 5.582088,0.01189 c 0.240984,0 0.42086,0.288748 0.314193,0.504362 -0.04159,0.08406 -0.15087,0.183841 -0.24288,0.221691 -0.224702,0.09242 -0.265087,0.08807 -0.387573,-0.04444 -0.236292,-0.255622 -0.03868,-0.681612 0.31626,-0.681613 z m -3.037024,0.594279 c -0.118338,0.0043 -0.245232,0.03059 -0.438216,0.08165 -1.056775,0.279615 -1.489612,1.035498 -1.196309,2.089795 0.128062,0.46033 0.325662,0.733659 0.658874,0.912089 0.54106,0.289729 1.451569,0.148731 1.958537,-0.30334 0.875783,-0.780951 0.508244,-2.460972 -0.596863,-2.728516 -0.158181,-0.03829 -0.267685,-0.05598 -0.386023,-0.05168 z m -9.244914,0.164331 c -0.474574,0 -0.573725,0.02401 -0.811836,0.194303 -0.452288,0.323468 -0.713697,1.1292 -0.592729,1.826762 0.08297,0.478429 0.598216,0.951098 1.222664,1.120862 0.373983,0.101671 1.036838,0.04227 1.28416,-0.115239 0.223863,-0.14257 0.470772,-0.509174 0.470772,-0.698665 0,-0.079 -0.13143,-0.144332 -0.444934,-0.221692 -0.443793,-0.109509 -0.444781,-0.108961 -0.569474,0.06253 -0.165263,0.227281 -0.342793,0.280252 -0.613916,0.183452 -0.316503,-0.113001 -0.401898,-0.352446 -0.305408,-0.855245 0.09934,-0.51769 0.320625,-0.772571 0.614433,-0.709001 0.269304,0.05827 0.450618,0.239008 0.450618,0.449068 0,0.134643 0.05437,0.183285 0.283704,0.251665 0.156153,0.04656 0.3892,0.08832 0.517798,0.09302 0.231191,0.0084 0.233926,0.0051 0.228926,-0.287838 -0.0079,-0.465451 -0.231604,-0.780996 -0.749308,-1.056783 -0.392091,-0.20887 -0.509496,-0.237194 -0.98547,-0.237194 z m 3.681429,0.492476 c -0.609107,0.01134 -1.172339,0.305991 -1.377693,0.7953 -0.14313,0.341046 -0.174621,1.13948 -0.0584,1.472262 0.101016,0.289234 0.386095,0.597148 0.697115,0.752925 0.342903,0.171747 1.199454,0.185256 1.554427,0.02481 0.536455,-0.242482 0.813904,-0.734182 0.813904,-1.441772 0,-0.700322 -0.278335,-1.200182 -0.799434,-1.435055 -0.266656,-0.120189 -0.553057,-0.173618 -0.829924,-0.168465 z m 5.45083,0.198438 c 0.108776,0.006 0.207434,0.04422 0.267168,0.118855 0.143353,0.179107 0.256998,0.570352 0.255798,0.8816 -0.0012,0.300806 -0.04387,0.387505 -0.245463,0.502295 -0.385525,0.219525 -0.682201,-0.02371 -0.814937,-0.667143 -0.081,-0.392676 -0.07807,-0.438687 0.04237,-0.613916 0.104373,-0.151849 0.313769,-0.231724 0.49506,-0.221691 z m -5.406905,0.581876 c 0.111281,-0.0046 0.2269,0.04276 0.343649,0.14211 0.158887,0.135205 0.176216,0.196675 0.176216,0.63407 0,0.309534 -0.03592,0.539684 -0.0987,0.636654 -0.158684,0.24509 -0.553034,0.26634 -0.786515,0.04237 -0.09,-0.08633 -0.117306,-0.226947 -0.117306,-0.610298 0,-0.432346 0.02197,-0.5214 0.164332,-0.675411 0.100194,-0.10839 0.207046,-0.16486 0.318326,-0.169499 z m 9.884668,0.07803 c 0.09958,-0.01064 0.14139,0.03679 0.19017,0.135392 0.10134,0.204846 -0.0069,0.330722 -0.503329,0.584977 -0.453016,0.232039 -0.583349,0.251082 -0.698665,0.100769 -0.151084,-0.196938 -0.01209,-0.375019 0.474906,-0.607715 0.27984,-0.133713 0.43734,-0.202785 0.536918,-0.213423 z" />
    </g>
    <g
       id="g81">
      <path
         id="path76"
         style="opacity:1;fill:#dddddd;fill-opacity:1;stroke:none;stroke-width:0.264583px;stroke-linecap:butt;stroke-linejoin:miter;stroke-opacity:1"
         d="m 24.17891,16.295604 c -0.224021,-5.01e-4 -0.691243,0.209433 -0.943095,0.423747 -0.09101,0.07745 -0.262136,0.161395 -0.379822,0.186552 -0.117686,0.02516 -0.373208,0.11296 -0.567924,0.195337 -0.336835,0.142501 -0.351992,0.159768 -0.311092,0.361218 0.02364,0.116453 0.0077,0.304479 -0.03566,0.417546 l -0.07855,0.205672 -0.745691,-0.122974 c -0.66812,-0.0104 -0.780871,0.118084 -1.077454,0.275932 -0.453425,0.241392 -0.792374,0.590326 -0.933276,0.959631 -0.354997,0.930451 -0.323975,0.90291 -0.920874,0.798918 -0.587,-0.102267 -0.857856,-0.0065 -1.312581,0.463538 -0.207125,0.214079 -0.466999,0.437843 -0.577226,0.497127 -0.110226,0.05928 -0.301728,0.19875 -0.425814,0.310059 -0.196,0.175817 -0.215797,0.222265 -0.150378,0.3545 0.100657,0.203468 0.09572,0.63235 -0.0083,0.72192 -0.04593,0.03956 -0.293677,0.08748 -0.55087,0.106453 -0.592133,0.04368 -0.917063,0.220325 -1.353923,0.737423 -0.714067,0.845219 -0.715665,1.813637 -0.0047,2.582788 0.319429,0.34556 0.584557,0.49117 0.985986,0.542602 0.728383,0.09332 1.538311,-0.49333 1.962155,-1.421101 0.124678,-0.272916 0.264283,-0.479021 0.333829,-0.49351 0.06731,-0.01402 0.236516,0.08956 0.387574,0.237194 0.336269,0.328651 0.54593,0.416263 0.853694,0.356051 0.257141,-0.08203 0.277644,-0.149569 0.433562,-0.325559 0.07403,-0.114334 0.109037,-0.320999 0.109037,-0.642339 0,-0.503571 0.04312,-0.609094 0.442867,-1.097607 0.120129,-0.146801 0.252935,-0.407078 0.295072,-0.578259 0.124416,-0.505437 0.20817,-0.564307 0.80822,-0.564307 0.828009,0 1.57873,-0.393268 1.99316,-1.044897 0.232235,-0.365158 0.355713,-0.425911 0.881083,-0.432015 0.431732,-0.005 0.6383,-0.158328 0.868681,-0.644405 0.122047,-0.257505 0.147872,-0.274929 0.344165,-0.229444 0.116737,0.02705 0.369886,0.06639 0.562239,0.08682 0.321691,0.03417 0.453319,0.002 0.638569,-0.198408 0.171817,-0.185872 0.271696,-0.331311 0.271696,-0.64861 0,-0.424654 -0.447135,-1.175066 -0.784174,-1.714066 -0.229817,-0.36767 -0.679239,-0.662786 -1.010185,-0.663527 z"
         sodipodi:nodetypes="sssssccccsscssscsscssssccssssscssssscs" />
      <path
         id="path22"
         style="fill:#e62826;fill-opacity:1"
         d="m 24.240236,16.335848 c -0.498248,0 -0.897128,0.268315 -1.12913,0.759127 l -0.102319,0.216524 -0.08423,-0.199471 c -0.0084,-0.01983 -0.01607,-0.03601 -0.02377,-0.05219 h 10e-4 l -0.0083,-0.01602 -0.0015,-0.0036 c -3.26e-4,-6.28e-4 -7.08e-4,-9.3e-4 -0.001,-0.0016 l -0.07131,-0.139526 -0.280086,0.121956 0.0031,5.17e-4 c -0.0717,0.02993 -0.150164,0.06443 -0.260966,0.115755 l -0.28112,0.130225 0.218075,0.599963 c 0.119863,0.330114 0.351497,0.966609 0.514697,1.413867 0.08624,0.236354 0.149625,0.39307 0.204122,0.515214 l -0.0026,0.0021 0.131775,0.302307 0.529167,-0.237195 0.448551,-0.198954 -0.244946,-0.64854 -0.0021,0.0016 c -0.03683,-0.103851 -0.06621,-0.191243 -0.108521,-0.306442 -0.34867,-0.949274 -0.351404,-1.144511 -0.02015,-1.292944 0.18189,-0.08151 0.220208,-0.07632 0.329695,0.04496 0.06821,0.07555 0.26485,0.519466 0.436666,0.986503 0.0352,0.09568 0.06982,0.184268 0.104387,0.270267 l -5.17e-4,5.17e-4 c 0.0041,0.01008 0.236678,0.626835 0.236678,0.626835 l 0.492993,-0.203088 c 0.0035,-0.0015 0.0064,-0.0026 0.0098,-0.0041 l 0.494026,-0.225309 -0.310058,-0.834575 -10e-4,5.17e-4 c -0.02275,-0.06584 -0.04327,-0.127924 -0.06821,-0.196887 -0.449567,-1.24303 -0.676698,-1.548226 -1.152901,-1.548226 z m -3.251998,1.681034 c -0.05558,-0.0026 -0.112522,-9.02e-4 -0.170015,0.0052 -0.72342,0.07637 -1.542083,0.729249 -1.697571,1.353922 -0.155306,0.623946 0.236792,1.530062 0.801501,1.853117 0.497285,0.284484 1.095819,0.176577 1.792139,-0.322461 0.469927,-0.336785 0.681362,-0.678592 0.680062,-1.100191 -5.01e-4,-0.159985 -0.0076,-0.27126 -0.02739,-0.348299 l 0.0026,-10e-4 -0.07545,-0.264583 -0.903821,0.5271 c 0,0 0.005,0.182935 0.0047,0.189135 -0.0012,0.02327 -0.0016,0.04883 -0.0016,0.07752 0,0.209774 -0.03821,0.279437 -0.217041,0.397392 -0.119412,0.07877 -0.27846,0.143511 -0.35295,0.14366 -0.166859,3.32e-4 -0.432015,-0.193 -0.432015,-0.314709 0,-0.04939 0.29519,-0.260667 0.656291,-0.469739 0.361102,-0.209071 0.768501,-0.453243 0.905371,-0.542603 l 0.24908,-0.162264 -0.220658,-0.353466 c -0.263922,-0.422294 -0.604134,-0.649801 -0.993221,-0.66766 z m -0.422713,0.858346 c 0.09036,-0.01048 0.17825,0.02678 0.286804,0.109037 l 0.15658,0.118856 -0.392224,0.241329 c -0.215768,0.132955 -0.43001,0.242382 -0.47594,0.242879 -0.164758,0.0018 -0.08549,-0.346015 0.121956,-0.534851 0.119422,-0.108706 0.212461,-0.166766 0.302824,-0.17725 z m -2.737301,1.086238 c -0.143178,0.0052 -0.285321,0.04533 -0.42323,0.12144 -0.329053,0.181604 -0.594497,0.508947 -0.655257,0.808219 -0.03957,0.194887 -0.0558,0.210377 -0.167948,0.133842 l -0.143144,-0.130741 c 0,0 -0.235492,0.173739 -0.259932,0.191719 l 0.0031,-5.16e-4 c -0.03706,0.02725 -0.06897,0.05011 -0.117822,0.08785 l -0.346749,0.267684 0.719336,1.079003 c 0.395645,0.593509 0.898623,1.346398 1.117761,1.673283 0.219138,0.326887 0.424483,0.595346 0.456303,0.596346 0.04835,0.0016 0.611527,-0.407251 0.799434,-0.580326 0.03056,-0.02815 -0.09699,-0.282779 -0.283703,-0.565857 -0.186715,-0.283077 -0.339514,-0.526402 -0.339514,-0.541052 0,-0.01465 0.117215,-0.04705 0.260449,-0.07183 0.356873,-0.06174 0.863764,-0.563588 0.938444,-0.928626 0.07922,-0.387195 -0.0315,-0.829171 -0.322461,-1.285193 -0.365837,-0.573381 -0.805533,-0.870852 -1.235067,-0.855245 z m -0.133842,1.082622 c 0.130536,4.06e-4 0.207697,0.06634 0.384473,0.299723 0.33443,0.441514 0.374655,0.706476 0.138493,0.907438 -0.100318,0.08537 -0.236081,0.155546 -0.301791,0.155546 -0.182892,0 -0.492462,-0.318739 -0.629935,-0.648539 -0.121375,-0.291175 -0.121084,-0.299697 0.01137,-0.492477 0.08462,-0.123162 0.209949,-0.204234 0.337447,-0.218074 0.02128,-0.0023 0.0413,-0.0037 0.05994,-0.0036 z m -2.549198,1.431437 c -0.38546,-0.0079 -0.78115,0.181012 -1.147734,0.567924 -0.484945,0.511837 -0.668902,1.043069 -0.545186,1.574581 0.09958,0.427806 0.645203,1.077339 1.026811,1.222147 0.348283,0.132149 0.48016,0.131106 0.852661,-0.0062 0.565117,-0.208308 1.167785,-0.92907 1.285193,-1.537374 0.06933,-0.359229 -0.08228,-0.835767 -0.384473,-1.207161 -0.326431,-0.401183 -0.701812,-0.605979 -1.087272,-0.613916 z m -0.319877,0.961181 c 0.03925,-0.0034 0.07884,-1.09e-4 0.117305,0.01034 0.200299,0.05438 0.772563,0.722671 0.772563,0.90227 0,0.07815 -0.078,0.242026 -0.173116,0.364319 -0.258921,0.332884 -0.492555,0.30337 -0.857829,-0.109037 -0.161559,-0.18241 -0.312687,-0.413631 -0.335897,-0.513668 -0.06764,-0.291563 0.202204,-0.630183 0.476974,-0.654224 z" />
    </g>
    <g
       id="g79">
      <path
         id="path1"
         style="fill:url(#linearGradient25);fill-opacity:1;stroke:none;stroke-width:0.264583px;stroke-linecap:butt;stroke-linejoin:miter;stroke-opacity:1"
         d="m 19.141322,30.842455 -3.284554,2.444296 c -1.139964,0.726325 -0.184003,1.303141 0.113172,1.564245 0.25647,0.225358 8.597924,5.74642 8.597924,5.74642 0.08413,0.04077 0.509911,0.374387 1.047482,-0.149345 0.298475,-0.290808 3.66851,-3.024622 3.66851,-3.024622 L 28.38882,36.842606 c -0.592743,0.422009 -1.864815,1.390439 -2.001428,1.192175 -0.252184,-0.365988 1.241146,-1.254065 1.581298,-1.46451 l -0.391707,-0.254248 c -0.578588,0.409599 -1.893993,1.416062 -2.032951,1.214396 -0.261349,-0.379289 1.354025,-1.320486 1.615405,-1.485697 L 26.72949,35.765669 c -0.544446,0.379605 -1.943049,1.460589 -2.086695,1.25212 -0.24675,-0.358102 1.250634,-1.288359 1.646411,-1.53789 l -0.320394,-0.20774 c -0.538378,0.37427 -1.950584,1.467334 -2.094962,1.257805 -0.24593,-0.356913 1.2605,-1.282608 1.666565,-1.535824 l -0.385506,-0.250114 c -0.563968,0.396764 -1.917173,1.436741 -2.058273,1.231966 -0.272999,-0.396199 1.501251,-1.405384 1.641244,-1.50275 l -0.419613,-0.272335 c -0.542212,0.377639 -1.945877,1.463051 -2.089795,1.254187 -0.246575,-0.357857 1.274742,-1.274402 1.677417,-1.521871 l -0.359668,-0.233578 h -5.16e-4 c -0.497809,0.338534 -1.995289,1.50833 -2.144056,1.292428 -0.25526,-0.370462 1.384852,-1.361059 1.716175,-1.56993 l -0.422713,-0.274402 c -0.555744,0.389537 -1.928465,1.447138 -2.070675,1.240751 -0.241571,-0.350579 1.210522,-1.245428 1.646928,-1.515669 l -0.379305,-0.24598 c -0.588322,0.418126 -1.874384,1.398778 -2.011764,1.19941 -0.254832,-0.369833 1.273826,-1.273153 1.592668,-1.471228 l -0.457853,-0.29714 c -0.598865,0.427372 -1.850954,1.377955 -1.986442,1.181323 -0.24836,-0.36043 1.19639,-1.226891 1.565279,-1.454174 l -0.332796,-0.216008 c -0.586454,0.416496 -1.878204,1.402333 -2.015898,1.202511 -0.255953,-0.371459 1.287854,-1.281647 1.597318,-1.474329 z" />
      <path
         id="path12"
         style="fill:url(#linearGradient23);fill-opacity:1;stroke:none;stroke-width:0.264583px;stroke-linecap:butt;stroke-linejoin:miter;stroke-opacity:1"
         d="m 39.269688,30.60703 3.340825,2.366804 c 1.156641,0.699464 0.214432,1.298481 -0.07655,1.566465 -0.25113,0.231294 -8.461169,5.945945 -8.461169,5.945945 -0.08315,0.04273 -0.501015,0.386211 -1.050688,-0.124804 -0.305196,-0.283748 -3.73825,-2.937991 -3.73825,-2.937991 l 0.881206,-0.601619 c 0.602451,0.40803 1.896826,1.346442 2.028765,1.145037 0.243554,-0.371785 -1.270139,-1.224692 -1.61512,-1.427124 l 0.385654,-0.26334 c 0.58801,0.395955 1.926594,1.371376 2.060798,1.166515 0.252406,-0.385298 -1.38454,-1.288455 -1.649713,-1.447508 l 0.423304,-0.289033 c 0.553175,0.366768 1.976679,1.414744 2.11541,1.202972 0.238306,-0.363775 -1.280426,-1.258755 -1.681931,-1.498961 l 0.315447,-0.215177 c 0.546985,0.361576 1.98437,1.421311 2.123809,1.208462 0.237514,-0.362568 -1.290155,-1.252775 -1.702032,-1.496424 l 0.379551,-0.259063 c 0.573094,0.383465 1.950253,1.391507 2.086525,1.183488 0.263657,-0.402475 -1.533711,-1.369887 -1.675943,-1.463952 l 0.413128,-0.282074 c 0.550897,0.364853 1.979565,1.417138 2.118558,1.204964 0.238138,-0.363526 -1.304201,-1.244238 -1.712554,-1.48222 l 0.354107,-0.241927 5.15e-4,-1.2e-5 c 0.505591,0.326798 2.030022,1.461249 2.173699,1.241927 0.246526,-0.376331 -1.416307,-1.328297 -1.752424,-1.529361 l 0.416178,-0.284213 c 0.564703,0.376431 1.961785,1.401636 2.099129,1.19198 0.233305,-0.356133 -1.23932,-1.216775 -1.681927,-1.476735 l 0.373448,-0.254784 c 0.59794,0.404251 1.906587,1.354555 2.039266,1.152028 0.246113,-0.375691 -1.303255,-1.24301 -1.626643,-1.433574 l 0.450778,-0.307767 c 0.608697,0.413248 1.882677,1.334286 2.013529,1.134539 0.239862,-0.36614 -1.224758,-1.198573 -1.598863,-1.417167 l 0.327653,-0.223732 c 0.596035,0.402666 1.910489,1.35802 2.043472,1.155032 0.247196,-0.377343 -1.317478,-1.251174 -1.631364,-1.436566 z" />
      <path
         id="path13"
         style="fill:url(#linearGradient17);fill-opacity:1;stroke:none;stroke-width:0.264583px;stroke-linecap:butt;stroke-linejoin:miter;stroke-opacity:1"
         d="m 19.141322,30.842455 -3.340825,-2.366804 c -1.156641,-0.699464 -0.214432,-1.298481 0.07655,-1.566465 0.25113,-0.231294 8.461169,-5.945945 8.461169,-5.945945 0.08315,-0.04273 0.501015,-0.386211 1.050688,0.124804 0.305196,0.283748 3.87272,2.99061 3.87272,2.99061 l -1.015676,0.549 c -0.602451,-0.40803 -1.896826,-1.346442 -2.028765,-1.145037 -0.243554,0.371785 1.270139,1.224692 1.61512,1.427124 l -0.385654,0.26334 c -0.58801,-0.395955 -1.926594,-1.371376 -2.060798,-1.166515 -0.252406,0.385298 1.38454,1.288455 1.649713,1.447508 l -0.423304,0.289033 c -0.553175,-0.366768 -1.976679,-1.414744 -2.11541,-1.202972 -0.238306,0.363775 1.280426,1.258755 1.681931,1.498961 l -0.315447,0.215177 c -0.546985,-0.361576 -1.98437,-1.421311 -2.123809,-1.208462 -0.237514,0.362568 1.290155,1.252775 1.702032,1.496424 l -0.379551,0.259063 c -0.573094,-0.383465 -1.950253,-1.391507 -2.086525,-1.183488 -0.263657,0.402475 1.533711,1.369887 1.675943,1.463952 l -0.413128,0.282074 c -0.550897,-0.364853 -1.979565,-1.417138 -2.118558,-1.204964 -0.238138,0.363526 1.304201,1.244238 1.712554,1.48222 l -0.354107,0.241927 -5.15e-4,1.2e-5 c -0.505591,-0.326798 -2.030022,-1.461249 -2.173699,-1.241927 -0.246526,0.376331 1.416307,1.328297 1.752424,1.529361 l -0.416178,0.284213 c -0.564703,-0.376431 -1.961785,-1.401636 -2.099129,-1.19198 -0.233305,0.356133 1.23932,1.216775 1.681927,1.476735 l -0.373448,0.254784 c -0.59794,-0.404251 -1.906587,-1.354555 -2.039266,-1.152028 -0.246113,0.375691 1.303255,1.24301 1.626643,1.433574 l -0.450778,0.307767 c -0.608697,-0.413248 -1.882677,-1.334286 -2.013529,-1.134539 -0.239862,0.36614 1.224758,1.198573 1.598863,1.417167 l -0.327653,0.223732 c -0.596035,-0.402666 -1.910489,-1.35802 -2.043472,-1.155032 -0.247196,0.377343 1.317478,1.251174 1.631364,1.436566 z"
         sodipodi:nodetypes="ccscsccsccsccsccsccsccscccsccsccsccsccscc" />
      <path
         style="fill:#4d4d4f;fill-opacity:1;stroke:none;stroke-width:0.264583px;stroke-linecap:butt;stroke-linejoin:miter;stroke-opacity:1"
         d="m 19.654197,30.492551 c -0.01845,-0.01845 -0.146945,0.403183 -0.02282,0.677432 -0.10913,0.04107 -0.281613,-0.01234 -0.411486,0.01718 -0.212516,0.0016 -0.09368,-0.243707 -0.07467,-0.361332 0.04867,-0.13223 -7.52e-4,-0.417934 0.217097,-0.354303 0.09658,0.01734 0.194559,0.01125 0.291876,0.02102 z"
         id="path14"
         sodipodi:nodetypes="sccccss" />
      <path
         id="path15"
         style="fill:url(#linearGradient21);fill-opacity:1;stroke:none;stroke-width:0.264583px;stroke-linecap:butt;stroke-linejoin:miter;stroke-opacity:1"
         d="m 39.269688,30.60703 3.284554,-2.444296 c 1.139964,-0.726325 0.184003,-1.303141 -0.113172,-1.564245 -0.25647,-0.225358 -8.597924,-5.74642 -8.597924,-5.74642 -0.08413,-0.04077 -0.509911,-0.374387 -1.047482,0.149345 -0.298475,0.290808 -3.66851,3.024622 -3.66851,3.024622 l 0.895036,0.580843 c 0.592743,-0.422009 1.864815,-1.390439 2.001428,-1.192175 0.252184,0.365988 -1.241146,1.254065 -1.581298,1.46451 l 0.391707,0.254248 c 0.578588,-0.409599 1.893993,-1.416062 2.032951,-1.214396 0.261349,0.379289 -1.354025,1.320486 -1.615405,1.485697 l 0.429947,0.279053 c 0.544446,-0.379605 1.943049,-1.460589 2.086695,-1.25212 0.24675,0.358102 -1.250634,1.288359 -1.646411,1.53789 l 0.320394,0.20774 c 0.538378,-0.37427 1.950584,-1.467334 2.094962,-1.257805 0.24593,0.356913 -1.2605,1.282608 -1.666565,1.535824 l 0.385506,0.250114 c 0.563968,-0.396764 1.917173,-1.436741 2.058273,-1.231966 0.272999,0.396199 -1.501251,1.405384 -1.641244,1.50275 l 0.419613,0.272335 c 0.542212,-0.377639 1.945877,-1.463051 2.089795,-1.254187 0.246575,0.357857 -1.274742,1.274402 -1.677417,1.521871 l 0.359668,0.233578 h 5.16e-4 c 0.497809,-0.338534 1.995289,-1.50833 2.144056,-1.292428 0.25526,0.370462 -1.384852,1.361059 -1.716175,1.56993 l 0.422713,0.274402 c 0.555744,-0.389537 1.928465,-1.447138 2.070675,-1.240751 0.241571,0.350579 -1.210522,1.245428 -1.646928,1.515669 l 0.379305,0.24598 c 0.588322,-0.418126 1.874384,-1.398778 2.011764,-1.19941 0.254832,0.369833 -1.273826,1.273153 -1.592668,1.471228 L 37.3959,29.3916 c 0.598865,-0.427372 1.850954,-1.377955 1.986442,-1.181323 0.24836,0.36043 -1.19639,1.226891 -1.565279,1.454174 l 0.332796,0.216008 c 0.586454,-0.416496 1.878204,-1.402333 2.015898,-1.202511 0.255953,0.371459 -1.287854,1.281647 -1.597318,1.474329 z" />
      <path
         style="fill:#4d4d4f;fill-opacity:1;stroke:none;stroke-width:0.264583px;stroke-linecap:butt;stroke-linejoin:miter;stroke-opacity:1"
         d="m 38.760712,30.27375 c 0.01845,-0.01845 0.146945,0.403183 0.02282,0.677432 0.10913,0.04107 0.281613,-0.01234 0.411486,0.01718 0.212516,0.0016 0.09368,-0.243707 0.07467,-0.361332 -0.04867,-0.13223 7.52e-4,-0.417934 -0.217097,-0.354303 -0.09658,0.01734 -0.194559,0.01125 -0.291876,0.02102 z"
         id="path16"
         sodipodi:nodetypes="sccccss" />
    </g>
    <g
       id="g80">
      <path
         style="fill:#0036ff;fill-opacity:1;stroke:none;stroke-width:0.264583px;stroke-linecap:butt;stroke-linejoin:miter;stroke-opacity:1"
         d="m 34.617492,23.831389 0.909505,-0.214974 2.282032,7.838281 -1.306381,0.281119 -1.174088,-3.299023 z"
         id="path18" />
      <path
         id="path20"
         style="fill:#0036ff;fill-opacity:1;stroke:none;stroke-width:0.264583px;stroke-linecap:butt;stroke-linejoin:miter;stroke-opacity:1"
         d="m 30.166085,19.629578 -0.637171,2.736267 1.285193,5.186247 2.10013,-0.504362 -1.091406,-5.432227 z m 0.661458,2.905249 c 0.568462,0.0095 0.584911,1.097867 0.639754,1.428853 0,0 -0.669728,0.173633 -0.711068,0.173633 -0.0726,-0.227776 -0.520868,-1.514108 -0.01654,-1.595768 0.0307,-0.005 0.05989,-0.0072 0.08785,-0.0067 z" />
      <path
         id="path19"
         style="fill:#0036ff;fill-opacity:1;stroke:none;stroke-width:0.264583px;stroke-linecap:butt;stroke-linejoin:miter;stroke-opacity:1"
         d="m 27.986373,25.559449 -0.996322,0.285254 0.359668,1.53789 -0.169499,0.09095 0.334864,1.322916 -0.223243,0.05374 0.314193,1.174088 -0.21084,-0.03721 0.301791,1.203028 -0.223242,0.124023 0.620117,2.430859 1.299662,-0.210839 0.213424,-0.91364 -0.65319,-3.662825 -0.694532,-3.199805 z m 0.556038,6.030639 c 0.181474,0.0019 0.385104,0.276556 0.436149,0.964282 l -0.68833,-0.0248 c -0.15353,-0.546517 0.03316,-0.941721 0.252181,-0.939478 z" />
      <path
         id="path4"
         style="fill:#2a6aff;fill-opacity:1;stroke:none;stroke-width:0.264583px;stroke-linecap:butt;stroke-linejoin:miter;stroke-opacity:1"
         d="m 33.335917,19.366545 -1.926497,0.56224 0.322461,1.314648 -0.177767,0.157096 0.39274,1.86862 -0.140559,0.181901 0.785481,3.29489 c 0,0 -0.119889,0.0083 -0.148828,-0.01654 -0.02894,-0.02481 -1.128613,-2.14974 -1.128613,-2.14974 l -0.177767,2.534213 -0.132292,0.198437 -0.785481,-3.580143 -0.173633,-0.09922 -0.789616,-3.175 -2.006596,0.376205 0.02636,0.144694 0.785482,3.290755 -0.190169,0.09509 0.293522,1.141015 -0.177767,0.05374 0.507462,2.26136 -0.157613,0.146245 0.677995,3.01687 -0.140043,0.151928 0.463021,2.180746 0.0217,0.09353 0.03462,0.124024 0.908472,-0.22996 c -0.118273,-0.466535 -0.48233,-1.829292 -0.468189,-1.912545 0.02397,-0.141143 0.325609,-0.395613 0.54777,-0.06821 0.1735,0.255684 0.370759,1.367735 0.449585,1.846916 l 0.258899,-0.06563 c -0.163191,-0.629902 -0.462992,-1.7654 -0.449585,-1.844332 0.0261,-0.153674 0.354971,-0.4314 0.596863,-0.07493 0.163569,0.24105 0.345302,1.180233 0.447518,1.768884 l 0.947746,-0.239779 c -0.143536,-0.559618 -0.277112,-1.096875 -0.267684,-1.152384 0.02865,-0.168712 0.389178,-0.473508 0.65474,-0.08217 0.107187,0.157961 0.22254,0.593179 0.321944,1.055233 l 1.042314,-0.26355 c -0.11696,-0.461874 -0.483928,-1.834174 -0.469739,-1.917712 0.02397,-0.141143 0.325606,-0.395613 0.54777,-0.06821 0.174282,0.256836 0.372527,1.376592 0.450619,1.852083 l 0.320394,-0.08113 c -0.159419,-0.616598 -0.478871,-1.823646 -0.465088,-1.904793 0.0261,-0.153674 0.354454,-0.430883 0.596346,-0.07441 0.169443,0.249706 0.359246,1.248747 0.458887,1.830379 l 0.679545,-0.172082 -0.553972,-2.571419 -0.124023,0.06615 -1.207161,-5.399153 -0.14056,0.07441 -0.206706,-1.124479 -0.157096,0.0083 -0.05788,-0.471289 z m -0.684196,0.820622 c 0.156542,-0.0033 0.295374,0.104591 0.327629,0.2651 l 0.489892,2.436544 c 0.03686,0.183426 -0.09247,0.282619 -0.274918,0.324011 l -0.171049,0.03876 c -0.18247,0.04139 -0.35898,-0.07288 -0.395842,-0.256315 l -0.47749,-2.354895 c -0.03686,-0.183439 0.08005,-0.364269 0.262516,-0.40566 l 0.171049,-0.03876 c 0.02281,-0.0052 0.04585,-0.0083 0.06821,-0.0088 z m -4.129464,1.034562 c 0.146694,-0.0031 0.276733,0.09815 0.306958,0.248564 l 0.458887,2.283064 c 0.03454,0.171899 -0.07499,0.341551 -0.24598,0.380339 l -0.160197,0.03617 c -0.17099,0.03879 -0.336506,-0.0684 -0.371036,-0.240295 l -0.458887,-2.283065 c -0.03454,-0.171899 0.07499,-0.341551 0.24598,-0.380338 l 0.160713,-0.03617 c 0.02137,-0.0048 0.04261,-0.0078 0.06356,-0.0083 z m 4.807459,2.431376 c 0.170693,-0.0064 0.340397,0.08216 0.382922,0.287838 0.02246,0.009 0.6165,2.537313 0.6165,2.537313 l -0.948263,0.205155 -0.447001,-2.580204 c -0.04489,-0.276622 0.17638,-0.441832 0.395842,-0.450102 z m -4.156336,1.082621 c 0.157117,-0.0059 0.313291,0.07579 0.352434,0.2651 0.02067,0.0083 0.573091,2.480986 0.573091,2.480986 l -0.781347,0.124023 -0.508496,-2.455664 c -0.04132,-0.254609 0.162323,-0.406832 0.364318,-0.414445 z m 5.432227,1.923914 0.709517,3.094385 c -0.228554,0.04451 -0.593435,0.110565 -0.681095,-0.176734 L 34.190645,27.405848 C 34.073708,26.835224 34.294642,26.6747 34.605607,26.65964 Z m -1.147217,0.260966 c 0.170362,-0.005 0.333303,0.03696 0.38809,0.216524 l 0.443384,2.170927 c 0.116937,0.570616 -0.103997,0.731148 -0.414962,0.746208 l -0.709517,-3.093868 c 0.08571,-0.01669 0.190788,-0.03682 0.293005,-0.03979 z m -1.602486,0.581876 c 0.239653,0.0511 0.401162,0.170571 0.553971,0.297657 0,0 0.471284,2.108398 0.496094,2.215885 0.06555,0.284054 -0.645504,0.416584 -0.79375,0.355534 -0.14056,-0.05788 -0.553971,-2.306836 -0.553971,-2.306836 0.03034,-0.240719 0.15122,-0.37497 0.297656,-0.56224 z m -1.28726,0.203606 0.648539,2.948657 c -0.222224,0.0429 -0.659427,0.180746 -0.744657,-0.09612 l -0.430982,-2.092377 c -0.113686,-0.549912 0.224757,-0.74565 0.5271,-0.76016 z m -1.19941,0.281636 c 0.165638,-0.0048 0.323969,0.03521 0.377238,0.208256 l 0.431498,2.091862 c 0.113695,0.549912 -0.10125,0.704826 -0.403593,0.719336 l -0.68988,-2.98173 c 0.08333,-0.01609 0.185354,-0.03486 0.284737,-0.03772 z" />
      <path
         style="fill:#0036ff;fill-opacity:1;stroke:none;stroke-width:0.264583px;stroke-linecap:butt;stroke-linejoin:miter;stroke-opacity:1"
         d="m 27.184354,20.978849 -0.165366,-5.969661 2.331641,5.523177 z"
         id="path2"
         sodipodi:nodetypes="cccc" />
      <path
         style="fill:#0036ff;fill-opacity:1;stroke:none;stroke-width:0.264583px;stroke-linecap:butt;stroke-linejoin:miter;stroke-opacity:1"
         d="m 31.368078,20.003198 -0.165366,-5.969661 2.331641,5.523177 z"
         id="path3"
         sodipodi:nodetypes="cccc" />
    </g>
    <g
       id="g1"
       transform="translate(-58.848382,-4.7959351)">
      <path
         style="fill:#e72829;fill-opacity:1"
         d="m 87.931621,39.747444 c -0.09185,-0.01459 -0.392472,-0.06134 -0.668038,-0.103892 -1.18454,-0.182923 -2.66378,-0.777797 -4.10843,-1.652199 -1.488938,-0.901209 -2.415441,-1.993838 -2.516263,-2.96744 -0.01029,-0.09937 -0.06095,-0.805801 -0.02519,-0.822555 -0.01154,-0.613337 0.713061,-1.748549 0.699207,-1.879427 -0.04196,-0.08481 2.756189,0.339848 2.795874,0.323293 0.146476,-0.0611 0.729641,0.657816 1.168793,1.800577 0.430785,1.120989 0.66304,1.386783 1.050747,1.793292 0.500545,0.52482 1.037691,0.898386 1.822845,1.267722 0.419091,0.19714 1.36993,0.345757 2.176015,0.340112 l 0.758879,-0.0053 -0.04589,0.199147 c -0.136584,0.592726 -0.573451,1.160911 -1.078389,1.402541 -0.161968,0.07751 -0.584697,0.188051 -0.939396,0.245653 -0.637485,0.103525 -0.76449,0.11034 -1.090774,0.05853 z"
         id="path31"
         sodipodi:nodetypes="ccssssssssccssscc" />
      <path
         style="fill:url(#linearGradient62);stroke:none;stroke-width:0.264583px;stroke-linecap:butt;stroke-linejoin:miter;stroke-opacity:1"
         d="m 83.913987,33.075544 c -0.110422,0.478866 0.142492,1.813326 0.777918,2.713565 0.564018,0.652351 1.450976,1.119221 2.210966,1.5006 1.955481,0.399881 -0.774098,-0.677595 -1.442463,-2.089557 -0.395604,-0.801347 -0.736375,-1.523712 -1.312575,-2.159687 -0.07795,0.01169 -0.155908,0.02339 -0.23386,0.03508 z"
         id="path61"
         sodipodi:nodetypes="ccccccc" />
      <path
         style="fill:#389c46;fill-opacity:1"
         d="m 80.591317,34.61475 c -0.03679,-0.04969 -0.134015,-0.234367 -0.216045,-0.410406 -0.217302,-0.466335 -0.192628,-1.14334 0.210755,-1.992528 0.36969,-0.778259 0.469472,-0.903285 0.457397,-1.734449 0.0035,-0.698343 0.331288,-1.219997 0.79415,-1.345666 0.08472,-0.023 0.304695,0.02557 0.292126,0.04734 -0.0385,0.06669 -0.122284,0.235693 -0.210096,0.404217 -0.253174,0.485874 -0.43002,1.186976 -0.343526,1.361814 0.104156,0.210538 0.36124,0.349113 0.809916,0.436567 0.484028,0.09434 1.003517,0.351182 1.287704,0.636647 0.22403,0.225037 0.602819,0.877805 0.602819,1.014916 0,0.190553 -0.704463,0.06754 -1.309522,-0.197889 -0.31195,-0.136847 -0.553524,-0.247055 -0.580153,-0.218247 -0.02663,0.02881 -0.07879,0.400415 -0.08926,0.852455 l 0.03823,0.870969 -0.29012,-0.250422 c -0.13282,-0.114646 -0.302613,-0.425441 -0.404529,-0.636021 -0.129871,-0.268343 -0.145502,-0.367755 -0.199184,-0.319559 -0.04213,0.03782 -0.208251,0.408982 -0.369166,0.8248 -0.160916,0.415818 -0.325072,0.808608 -0.348129,0.80955 -0.02306,9.42e-4 -0.09657,-0.104378 -0.133362,-0.154058 z"
         id="path32"
         sodipodi:nodetypes="ssscsssssssssscsssssss" />
      <path
         style="fill:#3f9147;fill-opacity:1;stroke:none;stroke-width:0.264583px;stroke-linecap:butt;stroke-linejoin:miter;stroke-opacity:1"
         d="m 81.043424,30.477367 c -0.01987,0.01475 0.208737,-0.583164 1.086276,-1.298326 -0.355757,-0.271236 -1.128101,0.355528 -1.086276,1.298326 z"
         id="path33"
         sodipodi:nodetypes="ccc" />
      <path
         style="fill:#297233;fill-opacity:1;stroke:none;stroke-width:0.264583px;stroke-linecap:butt;stroke-linejoin:miter;stroke-opacity:1"
         d="m 80.613705,34.201358 c -0.0042,0.07132 0.017,-1.082097 0.04271,-1.461896 -0.248005,0.389407 -0.215042,0.970174 -0.04271,1.461896 z"
         id="path34"
         sodipodi:nodetypes="ccc" />
      <path
         style="fill:#297233;fill-opacity:1;stroke:none;stroke-width:0.264583px;stroke-linecap:butt;stroke-linejoin:miter;stroke-opacity:1"
         d="m 82.630804,31.836382 c -0.05558,-0.04489 0.99854,0.738247 1.292548,0.980047 -0.188081,-0.466161 -0.746616,-0.819432 -1.292548,-0.980047 z"
         id="path35"
         sodipodi:nodetypes="ccc" />
      <path
         style="fill:#297233;fill-opacity:1;stroke:none;stroke-width:0.264583px;stroke-linecap:butt;stroke-linejoin:miter;stroke-opacity:1"
         d="m 81.612946,32.240688 c -0.07626,-0.02905 0.236089,1.279554 0.469501,1.552656 -0.02673,-0.441106 -0.197302,-1.100007 -0.469497,-1.552656 z"
         id="path36"
         sodipodi:nodetypes="cccc" />
      <path
         style="fill:#4e8e38;fill-opacity:1;stroke:none;stroke-width:0.23783px;stroke-linecap:butt;stroke-linejoin:miter;stroke-opacity:1"
         d="m 83.622376,32.874074 c 0.05737,0.02964 -1.019159,-0.473253 -1.323386,-0.633862 0.247493,0.373877 0.807433,0.586651 1.323386,0.633862 z"
         id="path37"
         sodipodi:nodetypes="ccc" />
      <path
         style="fill:#3a8e37;fill-opacity:1;stroke:none;stroke-width:0.149888px;stroke-linecap:butt;stroke-linejoin:miter;stroke-opacity:1"
         d="m 81.788949,32.118139 c -0.01718,-0.03665 0.325616,0.6236 0.415433,0.819656 0.01976,-0.28408 -0.177164,-0.602498 -0.415433,-0.819656 z"
         id="path38"
         sodipodi:nodetypes="ccc" />
      <path
         style="fill:#4dac3e;fill-opacity:1;stroke:none;stroke-width:0.201656px;stroke-linecap:butt;stroke-linejoin:miter;stroke-opacity:1"
         d="m 80.853264,34.044688 c -0.009,0.05829 0.105511,-0.889237 0.156257,-1.19932 -0.206008,0.295179 -0.233397,0.776758 -0.156257,1.19932 z"
         id="path39"
         sodipodi:nodetypes="ccc" />
      <path
         style="fill:#61a342;fill-opacity:1;stroke:none;stroke-width:0.201656px;stroke-linecap:butt;stroke-linejoin:miter;stroke-opacity:1"
         d="m 80.419826,34.201906 c 8.2e-5,0.05898 -0.03266,-0.894879 -0.03026,-1.209078 -0.158105,0.323378 -0.111021,0.803431 0.03026,1.209078 z"
         id="path40"
         sodipodi:nodetypes="ccc" />
      <path
         style="fill:#3b7945;fill-opacity:1;stroke:none;stroke-width:0.12009px;stroke-linecap:butt;stroke-linejoin:miter;stroke-opacity:1"
         d="m 81.312912,32.321931 c -0.02157,-0.03011 -0.167221,0.189579 -0.147395,0.35143 0.152441,-0.06493 0.15299,-0.345835 0.147395,-0.35143 z"
         id="path41"
         sodipodi:nodetypes="ccc" />
      <path
         style="fill:#3c943e;fill-opacity:1;stroke:none;stroke-width:0.112176px;stroke-linecap:butt;stroke-linejoin:miter;stroke-opacity:1"
         d="m 81.999306,31.476724 c -0.03443,0.0035 0.33235,0.440296 0.472673,0.499536 -0.09385,-0.162158 -0.283569,-0.379588 -0.472672,-0.499537 z"
         id="path42"
         sodipodi:nodetypes="cccc" />
      <path
         style="fill:#3e8d3b;fill-opacity:1;stroke:none;stroke-width:0.156099px;stroke-linecap:butt;stroke-linejoin:miter;stroke-opacity:1"
         d="m 81.116661,30.267551 c -0.01946,0.03765 0.310753,-0.668861 0.416209,-0.86852 -0.245427,0.162393 -0.385155,0.529882 -0.416209,0.86852 z"
         id="path43"
         sodipodi:nodetypes="ccc" />
      <path
         style="fill:#3e8248;fill-opacity:1;stroke:none;stroke-width:0.12009px;stroke-linecap:butt;stroke-linejoin:miter;stroke-opacity:1"
         d="m 81.26932,30.542835 c -0.03104,-0.02021 -0.08684,0.237408 -0.0095,0.38097 0.118395,-0.115917 0.01676,-0.377792 0.0095,-0.38097 z"
         id="path44"
         sodipodi:nodetypes="ccc" />
      <path
         style="fill:#3e8248;fill-opacity:1;stroke:none;stroke-width:0.0751323px;stroke-linecap:butt;stroke-linejoin:miter;stroke-opacity:1"
         d="m 81.542553,31.289208 c -0.02268,0.0048 0.0663,0.143588 0.163959,0.173097 0.0013,-0.103655 -0.159337,-0.174893 -0.163959,-0.173097 z"
         id="path45"
         sodipodi:nodetypes="ccc" />
      <path
         style="fill:#3c933d;fill-opacity:1;stroke:none;stroke-width:0.0880061px;stroke-linecap:butt;stroke-linejoin:miter;stroke-opacity:1"
         d="m 81.303959,31.161323 c -0.027,-0.0028 0.185275,0.391126 0.283652,0.45896 -0.0463,-0.139506 -0.157459,-0.336727 -0.283651,-0.458961 z"
         id="path46"
         sodipodi:nodetypes="cccc" />
      <path
         style="fill:#297233;fill-opacity:1;stroke:none;stroke-width:0.0542836px;stroke-linecap:butt;stroke-linejoin:miter;stroke-opacity:1"
         d="m 81.339216,31.483891 c -0.01803,-0.02468 -0.135915,0.03276 -0.105221,0.136392 0.07413,-0.01066 0.107019,-0.133294 0.105221,-0.136392 z"
         id="path47"
         sodipodi:nodetypes="ccc" />
      <path
         style="fill:#47a83f;fill-opacity:1;stroke:none;stroke-width:0.103279px;stroke-linecap:butt;stroke-linejoin:miter;stroke-opacity:1"
         d="m 81.220653,31.187625 c 0.0095,-0.02623 -0.11851,0.333861 -0.170273,0.473146 0.14804,-0.128784 0.180559,-0.25125 0.170273,-0.473146 z"
         id="path48"
         sodipodi:nodetypes="ccc" />
      <path
         style="fill:#297233;fill-opacity:1;stroke:none;stroke-width:0.139791px;stroke-linecap:butt;stroke-linejoin:miter;stroke-opacity:1"
         d="m 82.63235,32.240215 c -0.03888,0.01842 0.571235,0.380878 0.760077,0.392349 -0.176943,-0.152151 -0.489012,-0.329592 -0.760076,-0.392352 z"
         id="path49"
         sodipodi:nodetypes="cccc" />
      <path
         style="fill:#348f41;fill-opacity:1;stroke:none;stroke-width:0.263051px;stroke-linecap:butt;stroke-linejoin:miter;stroke-opacity:1"
         d="m 82.078424,31.430376 c -0.04714,-0.04351 1.372662,0.592029 1.670184,0.809836 -0.224984,-0.3852 -1.017134,-0.677116 -1.670184,-0.809836 z"
         id="path50"
         sodipodi:nodetypes="ccc" />
      <path
         style="fill:#3a8b3b;fill-opacity:1;stroke:none;stroke-width:0.103279px;stroke-linecap:butt;stroke-linejoin:miter;stroke-opacity:1"
         d="m 81.191787,31.059002 c 0.0095,-0.02623 -0.145186,0.462484 -0.196949,0.601769 0.14804,-0.128784 0.207235,-0.379873 0.196949,-0.601769 z"
         id="path51"
         sodipodi:nodetypes="ccc" />
      <path
         style="fill:#50a85d;fill-opacity:1;stroke:none;stroke-width:0.156099px;stroke-linecap:butt;stroke-linejoin:miter;stroke-opacity:1"
         d="m 81.587611,30.562728 c -0.02561,0.04315 0.297311,-0.955788 0.435966,-1.181551 -0.237736,0.223676 -0.389441,0.884036 -0.435966,1.181551 z"
         id="path52"
         sodipodi:nodetypes="ccc" />
      <path
         style="fill:#42884c;fill-opacity:1;stroke:none;stroke-width:0.134754px;stroke-linecap:butt;stroke-linejoin:miter;stroke-opacity:1"
         d="m 81.430659,30.320222 c -0.02868,0.01727 0.212467,-0.778687 0.316889,-0.932327 -0.190731,0.16222 -0.307361,0.619196 -0.316889,0.932327 z"
         id="path53"
         sodipodi:nodetypes="ccc" />
      <path
         style="fill:#359242;fill-opacity:1;stroke:none;stroke-width:0.107071px;stroke-linecap:butt;stroke-linejoin:miter;stroke-opacity:1"
         d="m 82.048036,29.143135 c -0.01352,-0.02929 -0.233436,0.250959 -0.247501,0.39071 0.124926,-0.127478 0.190729,-0.191244 0.247501,-0.390708 z"
         id="path54"
         sodipodi:nodetypes="cccc" />
      <path
         style="fill:url(#linearGradient60);fill-opacity:1;stroke:none;stroke-width:0.264583px;stroke-linecap:butt;stroke-linejoin:miter;stroke-opacity:1"
         d="m 80.63889,35.023911 0.529945,-0.933076 c 0,0 1.207307,2.063202 1.558098,2.425686 0.350791,0.362482 3.145565,2.771187 3.145565,2.771187 -0.922223,-0.203721 -4.69065,-1.676143 -5.233608,-4.263797 z"
         id="path55"
         sodipodi:nodetypes="ccscc" />
      <path
         style="fill:#df2220;fill-opacity:1;stroke:none;stroke-width:0.264583px;stroke-linecap:butt;stroke-linejoin:miter;stroke-opacity:1"
         d="m 81.178197,34.08204 c -0.02472,0.301826 2.687676,6.615308 9.8324,4.07121 -2.413424,0.76127 -6.853858,1.445877 -9.8324,-4.07121 z"
         id="path56"
         sodipodi:nodetypes="ccc" />
      <path
         style="fill:#e75829;fill-opacity:1;stroke:none;stroke-width:0.264583px;stroke-linecap:butt;stroke-linejoin:miter;stroke-opacity:1"
         d="m 82.849269,33.738644 c -0.03807,0.203061 0.512006,5.061773 8.213004,4.110748 -2.942437,0.222461 -7.474898,-0.409813 -8.213004,-4.110748 z"
         id="path57"
         sodipodi:nodetypes="ccc" />
      <path
         style="fill:#df2220;fill-opacity:1;stroke:none;stroke-width:0.0899607px;stroke-linecap:butt;stroke-linejoin:miter;stroke-opacity:1"
         d="m 87.524209,38.996599 c 0.04665,0.09179 2.220528,0.635253 2.946961,-0.468775 -0.517544,0.342696 -0.968874,0.629756 -2.946961,0.468775 z"
         id="path58"
         sodipodi:nodetypes="ccc" />
      <path
         style="fill:#dc0909;fill-opacity:1;stroke:none;stroke-width:0.0899607px;stroke-linecap:butt;stroke-linejoin:miter;stroke-opacity:1"
         d="m 88.20455,39.779107 c 0.03363,0.03702 1.81414,-0.414114 2.546013,-1.0637 0.0483,-0.02457 -0.380581,1.063209 -2.546013,1.0637 z"
         id="path59"
         sodipodi:nodetypes="ccc" />
      <path
         style="fill:#e98549;fill-opacity:1;stroke:none;stroke-width:0.264583px;stroke-linecap:butt;stroke-linejoin:miter;stroke-opacity:1"
         d="m 80.751684,35.504874 c 0.01597,0.04308 1.09089,3.063211 6.511899,4.138678 -1.012158,-0.141566 -5.045378,-1.327877 -6.511899,-4.138678 z"
         id="path60"
         sodipodi:nodetypes="ccc" />
    </g>
  </g>
</svg>
